<svg xmlns="http://www.w3.org/2000/svg" viewBox="0 0 800 600" fill="none">
  <defs>
    <linearGradient id="bg" x1="0" y1="0" x2="800" y2="600" gradientUnits="userSpaceOnUse">
      <stop offset="0" stop-color="#061d5c"/>
      <stop offset="1" stop-color="#0f2a6e"/>
    </linearGradient>
    <linearGradient id="accent1" x1="0" y1="0" x2="200" y2="200" gradientUnits="userSpaceOnUse">
      <stop offset="0" stop-color="#f2b218"/>
      <stop offset="1" stop-color="#ff7a12"/>
    </linearGradient>
    <linearGradient id="cardGrad" x1="0" y1="0" x2="400" y2="300" gradientUnits="userSpaceOnUse">
      <stop offset="0" stop-color="#ffffff" stop-opacity="0.08"/>
      <stop offset="1" stop-color="#ffffff" stop-opacity="0.02"/>
    </linearGradient>
  </defs>
  
  <rect width="800" height="600" fill="url(#bg)"/>
  
  <g opacity="0.05">
    <path d="M0 50L800 50M0 100L800 100M0 150L800 150M0 200L800 200M0 250L800 250M0 300L800 300M0 350L800 350M0 400L800 400M0 450L800 450M0 500L800 500M0 550L800 550M50 0L50 600M100 0L100 600M150 0L150 600M200 0L200 600M250 0L250 600M300 0L300 600M350 0L350 600M400 0L400 600M450 0L450 600M500 0L500 600M550 0L550 600M600 0L600 600M650 0L650 600M700 0L700 600M750 0L750 600" stroke="#f2b218" stroke-width="1"/>
  </g>
  
  <circle cx="120" cy="120" r="80" fill="url(#accent1)" opacity="0.08"/>
  <circle cx="700" cy="480" r="120" fill="#ff7a12" opacity="0.06"/>
  
  <rect x="120" y="80" width="560" height="440" rx="24" fill="url(#cardGrad)" stroke="rgba(255,255,255,0.1)" stroke-width="1"/>
  
  <rect x="120" y="80" width="560" height="56" rx="24" fill="rgba(255,255,255,0.04)"/>
  <circle cx="155" cy="108" r="6" fill="#f2b218"/>
  <circle cx="175" cy="108" r="6" fill="#ff7a12" opacity="0.7"/>
  <circle cx="195" cy="108" r="6" fill="#ffffff" opacity="0.3"/>
  
  <circle cx="180" cy="180" r="35" fill="rgba(242,178,24,0.08)" stroke="rgba(242,178,24,0.2)" stroke-width="1"/>
  <path d="M165 185C165 170 180 160 195 170C210 180 205 195 195 200" stroke="#f2b218" stroke-width="2" fill="none" opacity="0.6"/>
  
  <rect x="280" y="140" width="240" height="160" rx="20" fill="rgba(255,255,255,0.03)" stroke="rgba(255,255,255,0.06)" stroke-width="1"/>
  
  <rect x="300" y="160" width="80" height="60" rx="12" fill="rgba(242,178,24,0.08)" stroke="rgba(242,178,24,0.15)" stroke-width="1"/>
  <circle cx="340" cy="175" r="8" fill="#f2b218" opacity="0.4"/>
  <circle cx="330" cy="188" r="5" fill="rgba(255,255,255,0.1)"/>
  <circle cx="350" cy="185" r="5" fill="rgba(255,255,255,0.1)"/>
  
  <rect x="400" y="160" width="100" height="60" rx="12" fill="rgba(255,122,18,0.06)" stroke="rgba(255,122,18,0.12)" stroke-width="1"/>
  <rect x="415" y="175" width="70" height="8" rx="4" fill="rgba(255,255,255,0.12)"/>
  <rect x="415" y="190" width="50" height="6" rx="3" fill="rgba(255,255,255,0.05)"/>
  
  <rect x="300" y="220" width="200" height="60" rx="12" fill="rgba(242,178,24,0.05)" stroke="rgba(242,178,24,0.1)" stroke-width="1"/>
  <rect x="320" y="240" width="160" height="6" rx="3" fill="rgba(255,255,255,0.08)"/>
  <rect x="320" y="254" width="100" height="6" rx="3" fill="rgba(255,255,255,0.04)"/>
  
  <rect x="140" y="330" width="380" height="60" rx="16" fill="rgba(255,255,255,0.03)" stroke="rgba(255,255,255,0.06)" stroke-width="1"/>
  <rect x="165" y="355" width="40" height="10" rx="5" fill="#f2b218" opacity="0.3"/>
  <rect x="215" y="355" width="40" height="10" rx="5" fill="rgba(255,255,255,0.06)"/>
  <rect x="265" y="355" width="40" height="10" rx="5" fill="rgba(255,255,255,0.06)"/>
  <rect x="315" y="355" width="40" height="10" rx="5" fill="rgba(255,255,255,0.06)"/>
  <rect x="365" y="355" width="40" height="10" rx="5" fill="rgba(255,255,255,0.06)"/>
  
  <rect x="540" y="330" width="120" height="60" rx="16" fill="rgba(242,178,24,0.06)" stroke="rgba(242,178,24,0.12)" stroke-width="1"/>
  <rect x="560" y="350" width="80" height="6" rx="3" fill="rgba(255,255,255,0.1)"/>
  <rect x="560" y="365" width="80" height="6" rx="3" fill="rgba(255,255,255,0.05)"/>
  
  <rect x="140" y="410" width="520" height="90" rx="16" fill="rgba(255,255,255,0.03)" stroke="rgba(255,255,255,0.06)" stroke-width="1"/>
  
  <rect x="160" y="430" width="90" height="50" rx="12" fill="rgba(242,178,24,0.06)" stroke="rgba(242,178,24,0.1)" stroke-width="1"/>
  <circle cx="205" cy="455" r="12" fill="none" stroke="#f2b218" stroke-width="1.5"/>
  <path d="M198 455L204 461L214 449" stroke="#f2b218" stroke-width="1.5" fill="none"/>
  
  <rect x="270" y="430" width="90" height="50" rx="12" fill="rgba(255,122,18,0.06)" stroke="rgba(255,122,18,0.1)" stroke-width="1"/>
  <circle cx="315" cy="455" r="12" fill="none" stroke="#ff7a12" stroke-width="1.5"/>
  <path d="M308 455L314 461L324 449" stroke="#ff7a12" stroke-width="1.5" fill="none"/>
  
  <rect x="380" y="430" width="90" height="50" rx="12" fill="rgba(242,178,24,0.06)" stroke="rgba(242,178,24,0.1)" stroke-width="1"/>
  <circle cx="425" cy="455" r="12" fill="none" stroke="#f2b218" stroke-width="1.5"/>
  <path d="M418 455L424 461L434 449" stroke="#f2b218" stroke-width="1.5" fill="none"/>
  
  <rect x="490" y="430" width="90" height="50" rx="12" fill="rgba(255,122,18,0.06)" stroke="rgba(255,122,18,0.1)" stroke-width="1"/>
  <circle cx="535" cy="455" r="12" fill="none" stroke="#ff7a12" stroke-width="1.5"/>
  <path d="M528 455L534 461L544 449" stroke="#ff7a12" stroke-width="1.5" fill="none"/>
  
  <circle cx="60" cy="500" r="4" fill="#f2b218" opacity="0.4"/>
  <circle cx="740" cy="520" r="3" fill="#ff7a12" opacity="0.4"/>
</svg>
