<svg xmlns="http://www.w3.org/2000/svg" viewBox="0 0 800 600" fill="none">
  <defs>
    <linearGradient id="bg" x1="0" y1="0" x2="800" y2="600" gradientUnits="userSpaceOnUse">
      <stop offset="0" stop-color="#061d5c"/>
      <stop offset="1" stop-color="#0f2a6e"/>
    </linearGradient>
    <linearGradient id="accent1" x1="0" y1="0" x2="200" y2="200" gradientUnits="userSpaceOnUse">
      <stop offset="0" stop-color="#f2b218"/>
      <stop offset="1" stop-color="#ff7a12"/>
    </linearGradient>
    <linearGradient id="cardGrad" x1="0" y1="0" x2="400" y2="300" gradientUnits="userSpaceOnUse">
      <stop offset="0" stop-color="#ffffff" stop-opacity="0.08"/>
      <stop offset="1" stop-color="#ffffff" stop-opacity="0.02"/>
    </linearGradient>
  </defs>
  
  <rect width="800" height="600" fill="url(#bg)"/>
  
  <g opacity="0.05">
    <path d="M0 50L800 50M0 100L800 100M0 150L800 150M0 200L800 200M0 250L800 250M0 300L800 300M0 350L800 350M0 400L800 400M0 450L800 450M0 500L800 500M0 550L800 550M50 0L50 600M100 0L100 600M150 0L150 600M200 0L200 600M250 0L250 600M300 0L300 600M350 0L350 600M400 0L400 600M450 0L450 600M500 0L500 600M550 0L550 600M600 0L600 600M650 0L650 600M700 0L700 600M750 0L750 600" stroke="#f2b218" stroke-width="1"/>
  </g>
  
  <circle cx="120" cy="120" r="80" fill="url(#accent1)" opacity="0.08"/>
  <circle cx="700" cy="480" r="120" fill="#ff7a12" opacity="0.06"/>
  
  <rect x="120" y="80" width="560" height="440" rx="24" fill="url(#cardGrad)" stroke="rgba(255,255,255,0.1)" stroke-width="1"/>
  
  <rect x="120" y="80" width="560" height="56" rx="24" fill="rgba(255,255,255,0.04)"/>
  <circle cx="155" cy="108" r="6" fill="#f2b218"/>
  <circle cx="175" cy="108" r="6" fill="#ff7a12" opacity="0.7"/>
  <circle cx="195" cy="108" r="6" fill="#ffffff" opacity="0.3"/>
  
  <rect x="140" y="160" width="100" height="100" rx="20" fill="rgba(242,178,24,0.08)" stroke="rgba(242,178,24,0.2)" stroke-width="1"/>
  <path d="M160 200L180 220L220 175" stroke="#f2b218" stroke-width="3" stroke-linecap="round" stroke-linejoin="round"/>
  
  <rect x="140" y="280" width="100" height="100" rx="20" fill="rgba(255,122,18,0.08)" stroke="rgba(255,122,18,0.2)" stroke-width="1"/>
  <circle cx="190" cy="330" r="30" fill="none" stroke="#ff7a12" stroke-width="2" opacity="0.5"/>
  <circle cx="190" cy="330" r="20" fill="none" stroke="#ff7a12" stroke-width="2" opacity="0.3"/>
  <circle cx="190" cy="330" r="10" fill="#ff7a12" opacity="0.2"/>
  
  <rect x="260" y="160" width="300" height="220" rx="20" fill="rgba(255,255,255,0.03)" stroke="rgba(255,255,255,0.06)" stroke-width="1"/>
  
  <rect x="280" y="180" width="80" height="12" rx="6" fill="rgba(255,255,255,0.12)"/>
  <rect x="280" y="200" width="200" height="80" rx="12" fill="rgba(242,178,24,0.06)"/>
  
  <path d="M280 290L320 260L360 280L400 250L440 270L500 240" stroke="#f2b218" stroke-width="2" stroke-linecap="round" fill="none" opacity="0.6"/>
  <path d="M280 300L320 270L360 290L400 260L440 280L500 250" stroke="#ff7a12" stroke-width="2" stroke-linecap="round" fill="none" opacity="0.4"/>
  
  <rect x="280" y="320" width="60" height="10" rx="5" fill="url(#accent1)"/>
  <rect x="350" y="320" width="60" height="10" rx="5" fill="rgba(255,255,255,0.08)"/>
  <rect x="420" y="320" width="60" height="10" rx="5" fill="rgba(255,255,255,0.08)"/>
  
  <rect x="600" y="160" width="80" height="80" rx="20" fill="rgba(242,178,24,0.08)" stroke="rgba(242,178,24,0.2)" stroke-width="1"/>
  <circle cx="640" cy="180" r="8" fill="#f2b218" opacity="0.6"/>
  <circle cx="640" cy="205" r="8" fill="#ff7a12" opacity="0.4"/>
  <circle cx="640" cy="230" r="8" fill="#f2b218" opacity="0.3"/>
  
  <rect x="582" y="270" width="60" height="60" rx="16" fill="rgba(255,255,255,0.03)" stroke="rgba(255,255,255,0.06)" stroke-width="1"/>
  <path d="M600 295L615 310L605 300L595 315" stroke="#f2b218" stroke-width="2" stroke-linecap="round" stroke-linejoin="round"/>
  
  <rect x="600" y="350" width="80" height="40" rx="8" fill="rgba(242,178,24,0.06)" stroke="rgba(242,178,24,0.12)" stroke-width="1"/>
  <rect x="615" y="363" width="50" height="6" rx="3" fill="rgba(255,255,255,0.15)"/>
  <rect x="615" y="375" width="35" height="4" rx="2" fill="#f2b218" opacity="0.4"/>
  
  <rect x="540" y="440" width="100" height="60" rx="12" fill="rgba(255,255,255,0.03)" stroke="rgba(255,255,255,0.05)" stroke-width="1"/>
  <rect x="555" y="455" width="70" height="8" rx="4" fill="rgba(255,255,255,0.08)"/>
  <rect x="555" y="470" width="50" height="6" rx="3" fill="rgba(255,255,255,0.05)"/>
  
  <circle cx="60" cy="500" r="4" fill="#f2b218" opacity="0.4"/>
  <circle cx="740" cy="520" r="3" fill="#ff7a12" opacity="0.4"/>
</svg>
