<svg xmlns="http://www.w3.org/2000/svg" viewBox="0 0 800 600" fill="none">
  <defs>
    <linearGradient id="bg" x1="0" y1="0" x2="800" y2="600" gradientUnits="userSpaceOnUse">
      <stop offset="0" stop-color="#061d5c"/>
      <stop offset="1" stop-color="#0f2a6e"/>
    </linearGradient>
    <linearGradient id="accent1" x1="0" y1="0" x2="200" y2="200" gradientUnits="userSpaceOnUse">
      <stop offset="0" stop-color="#f2b218"/>
      <stop offset="1" stop-color="#ff7a12"/>
    </linearGradient>
    <linearGradient id="cardGrad" x1="0" y1="0" x2="400" y2="300" gradientUnits="userSpaceOnUse">
      <stop offset="0" stop-color="#ffffff" stop-opacity="0.08"/>
      <stop offset="1" stop-color="#ffffff" stop-opacity="0.02"/>
    </linearGradient>
  </defs>
  
  <rect width="800" height="600" fill="url(#bg)"/>
  
  <g opacity="0.05">
    <path d="M0 50L800 50M0 100L800 100M0 150L800 150M0 200L800 200M0 250L800 250M0 300L800 300M0 350L800 350M0 400L800 400M0 450L800 450M0 500L800 500M0 550L800 550M50 0L50 600M100 0L100 600M150 0L150 600M200 0L200 600M250 0L250 600M300 0L300 600M350 0L350 600M400 0L400 600M450 0L450 600M500 0L500 600M550 0L550 600M600 0L600 600M650 0L650 600M700 0L700 600M750 0L750 600" stroke="#f2b218" stroke-width="1"/>
  </g>
  
  <circle cx="120" cy="120" r="80" fill="url(#accent1)" opacity="0.08"/>
  <circle cx="700" cy="480" r="120" fill="#ff7a12" opacity="0.06"/>
  
  <rect x="120" y="80" width="560" height="440" rx="24" fill="url(#cardGrad)" stroke="rgba(255,255,255,0.1)" stroke-width="1"/>
  
  <rect x="120" y="80" width="560" height="56" rx="24" fill="rgba(255,255,255,0.04)"/>
  <circle cx="155" cy="108" r="6" fill="#f2b218"/>
  <circle cx="175" cy="108" r="6" fill="#ff7a12" opacity="0.7"/>
  <circle cx="195" cy="108" r="6" fill="#ffffff" opacity="0.3"/>
  
  <circle cx="400" cy="260" r="100" fill="rgba(242,178,24,0.06)" stroke="rgba(242,178,24,0.15)" stroke-width="2"/>
  <path d="M350 240L400 200L450 240L430 280L370 280Z" fill="rgba(242,178,24,0.08)" stroke="#f2b218" stroke-width="2" stroke-linejoin="round"/>
  <rect x="385" y="210" width="30" height="40" rx="4" fill="rgba(255,255,255,0.04)" stroke="#f2b218" stroke-width="1.5"/>
  <circle cx="400" cy="220" r="3" fill="#f2b218"/>
  <rect x="393" y="228" width="14" height="3" rx="1.5" fill="#f2b218" opacity="0.6"/>
  
  <rect x="140" y="160" width="120" height="100" rx="20" fill="rgba(255,255,255,0.03)" stroke="rgba(255,255,255,0.06)" stroke-width="1"/>
  <circle cx="200" cy="185" r="15" fill="none" stroke="#f2b218" stroke-width="1.5"/>
  <path d="M193 185L198 190L210 178" stroke="#f2b218" stroke-width="2" fill="none"/>
  <rect x="170" y="210" width="60" height="6" rx="3" fill="rgba(255,255,255,0.12)"/>
  <rect x="170" y="225" width="40" height="6" rx="3" fill="rgba(255,255,255,0.05)"/>
  
  <rect x="540" y="160" width="120" height="100" rx="20" fill="rgba(255,255,255,0.03)" stroke="rgba(255,255,255,0.06)" stroke-width="1"/>
  <rect x="560" y="180" width="80" height="50" rx="10" fill="rgba(242,178,24,0.06)" stroke="#f2b218" stroke-width="1"/>
  <circle cx="600" cy="195" r="8" fill="none" stroke="#f2b218" stroke-width="1.5"/>
  <path d="M595 205L600 210L610 198" stroke="#f2b218" stroke-width="1.5" fill="none"/>
  <rect x="565" y="240" width="70" height="6" rx="3" fill="rgba(255,255,255,0.08)"/>
  <rect x="565" y="252" width="50" height="6" rx="3" fill="#ff7a12" opacity="0.3"/>
  
  <rect x="140" y="340" width="520" height="60" rx="16" fill="rgba(255,255,255,0.03)" stroke="rgba(255,255,255,0.06)" stroke-width="1"/>
  <circle cx="180" cy="370" r="16" fill="rgba(242,178,24,0.1)" stroke="#f2b218" stroke-width="1"/>
  <path d="M172 365L180 373L188 360" stroke="#f2b218" stroke-width="1.5" fill="none"/>
  
  <rect x="210" y="360" width="80" height="8" rx="4" fill="rgba(255,255,255,0.08)"/>
  <rect x="210" y="376" width="50" height="6" rx="3" fill="rgba(255,255,255,0.04)"/>
  
  <rect x="320" y="360" width="80" height="8" rx="4" fill="rgba(255,255,255,0.08)"/>
  <rect x="320" y="376" width="50" height="6" rx="3" fill="rgba(255,255,255,0.04)"/>
  
  <rect x="430" y="360" width="80" height="8" rx="4" fill="rgba(255,255,255,0.08)"/>
  <rect x="430" y="376" width="50" height="6" rx="3" fill="rgba(255,255,255,0.04)"/>
  
  <rect x="540" y="360" width="80" height="8" rx="4" fill="rgba(255,255,255,0.08)"/>
  <rect x="540" y="376" width="50" height="6" rx="3" fill="rgba(255,255,255,0.04)"/>
  
  <rect x="140" y="420" width="260" height="80" rx="16" fill="rgba(242,178,24,0.05)" stroke="rgba(242,178,24,0.1)" stroke-width="1"/>
  <rect x="160" y="435" width="100" height="8" rx="4" fill="rgba(255,255,255,0.1)"/>
  <rect x="160" y="450" width="70" height="6" rx="3" fill="rgba(255,255,255,0.05)"/>
  <rect x="160" y="472" width="220" height="14" rx="7" fill="url(#accent1)"/>
  
  <rect x="420" y="420" width="240" height="80" rx="16" fill="rgba(255,255,255,0.03)" stroke="rgba(255,255,255,0.06)" stroke-width="1"/>
  
  <rect x="440" y="440" width="60" height="40" rx="8" fill="rgba(242,178,24,0.06)" stroke="#f2b218" stroke-width="1"/>
  <rect x="452" y="450" width="36" height="3" rx="1.5" fill="#f2b218" opacity="0.6"/>
  <rect x="452" y="459" width="36" height="3" rx="1.5" fill="#f2b218" opacity="0.6"/>
  <rect x="452" y="468" width="20" height="3" rx="1.5" fill="#f2b218" opacity="0.6"/>
  
  <rect x="510" y="445" width="80" height="6" rx="3" fill="rgba(255,255,255,0.1)"/>
  <rect x="510" y="460" width="60" height="6" rx="3" fill="rgba(255,255,255,0.05)"/>
  
  <circle cx="60" cy="500" r="4" fill="#f2b218" opacity="0.4"/>
  <circle cx="740" cy="520" r="3" fill="#ff7a12" opacity="0.4"/>
</svg>
